<svg width="22" height="26" viewBox="0 0 22 26" fill="none" xmlns="http://www.w3.org/2000/svg">
<path fill-rule="evenodd" clip-rule="evenodd" d="M13.75 22.9359C13.75 24.3462 12.5125 25.5 11 25.5C9.47373 25.5 8.24996 24.3462 8.24996 22.9359H13.75ZM19.25 11.3974V18L22 20.3719V21.6538H0V20.3719L2.75 18V11.3974C2.75 7.44873 4.99125 4.16668 8.93755 3.29487V2.42308C8.93755 1.35898 9.85878 0.5 11 0.5C12.1412 0.5 13.0625 1.35898 13.0625 2.42308V3.29487C16.995 4.16668 19.25 7.46156 19.25 11.3974ZM17.085 11.3335L17.02 17.9996L19 20L3 19.9996L4.98 17.9996L5.04496 11.3335C5.04496 8.49045 7.15867 5.75518 10 5.12748V4.49979C10 3.73365 10.1633 3.11523 10.985 3.11523C11.8066 3.11523 12 3.73365 12 4.49979V5.12748C14.8313 5.75518 17.085 8.49969 17.085 11.3335Z" fill="black" fill-opacity="0.56"/>
</svg>
