<svg width="21" height="19" viewBox="0 0 21 19" fill="none" xmlns="http://www.w3.org/2000/svg">
<path d="M14.7939 11.9497H13.8905L13.5703 11.6564C14.691 10.418 15.3656 8.81019 15.3656 7.06117C15.3656 3.16123 12.038 0 7.93282 0C3.82762 0 0.5 3.16123 0.5 7.06117C0.5 10.9611 3.82762 14.1224 7.93282 14.1224C9.77387 14.1224 11.4663 13.4814 12.7699 12.4168L13.0786 12.721V13.5792L18.7962 19L20.5 17.3814L14.7939 11.9497ZM7.93282 11.9497C5.08548 11.9497 2.78702 9.76616 2.78702 7.06117C2.78702 4.3562 5.08548 2.17267 7.93282 2.17267C10.7802 2.17267 13.0786 4.3562 13.0786 7.06117C13.0786 9.76616 10.7802 11.9497 7.93282 11.9497Z" fill="black" fill-opacity="0.56"/>
</svg>
