<svg width="29" height="30" viewBox="0 0 29 30" fill="none" xmlns="http://www.w3.org/2000/svg">
<path d="M26.0384 0.417332C27.011 0.623055 27.7854 1.84047 28.0497 2.81832L28.1131 3.04542L28.121 5.57822L28.129 8.10835L28.01 8.59728C27.944 8.86446 27.8488 9.26254 27.796 9.4843C27.5581 10.4889 27.4312 10.9858 27.3995 11.0499C27.3625 11.1221 27.1855 11.2931 27.1035 11.3358C27.0771 11.3492 27.0057 11.3705 26.9449 11.3812L26.8339 11.3999L26.826 12.4713C26.8181 13.5133 26.8154 13.548 26.7599 13.6522C26.6939 13.7778 26.5644 13.906 26.4349 13.9755C26.3503 14.0209 26.2578 14.0262 25.2799 14.0343L24.2175 14.0423L24.2095 15.4503C24.2016 16.8449 24.2016 16.8583 24.1435 16.9678C24.0668 17.1121 23.8897 17.2644 23.7549 17.3018C23.4986 17.3713 22.91 17.2724 22.7567 17.072C22.6193 16.885 22.6114 16.8155 22.6114 15.3701V14.0423L21.8283 14.0343C20.7975 14.0262 20.3402 14.0236 20.2371 13.9675C20.1261 13.9087 20.031 13.8125 19.9438 13.6789C19.8962 13.6041 19.8935 13.5266 19.8803 12.506L19.8671 11.4106L19.7482 11.3812C19.5262 11.3224 19.3808 11.2129 19.291 11.0339C19.2698 10.9885 19.135 10.4835 18.9949 9.91177C18.8522 9.33735 18.728 8.84308 18.7148 8.80835L18.691 8.74957L16.7111 8.75491L12.4084 8.76293L12.4005 13.6976L12.3952 18.635L17.441 18.6403C25.1372 18.6483 24.4606 18.6323 24.672 18.8193C25.0262 19.1346 24.9178 20.2158 24.4765 20.3974C24.3655 20.4428 25.6917 20.4455 14.7659 20.4455L3.70013 20.4482V22.6025V24.7568L15.9949 24.7515L26.3951 24.7435L26.4083 23.5777L26.4215 21.9346L26.4823 21.8357C26.5722 21.6888 26.707 21.5819 26.8708 21.5311C27.1483 21.443 27.8726 21.5605 28.0338 21.8277L28.1131 21.9559L28.1263 23.5884L28.1395 24.7435L28.2188 24.7675C28.4778 24.845 28.6311 24.9625 28.7263 25.1549C28.7712 25.2431 28.7738 25.8326 28.7738 27.2246C28.7738 28.7101 28.7738 28.8799 28.7157 28.9894C28.6417 29.1284 28.4778 29.278 28.3483 29.3234C28.1924 29.3795 1.88698 29.3795 1.73369 29.3234C1.57512 29.2673 1.41126 29.099 1.34783 28.9307C1.29761 28.7891 1.29497 28.5685 1.29497 27.2246C1.29497 25.8914 1.29761 25.3393 1.34783 25.203C1.42976 24.9839 1.62798 24.8156 1.85527 24.7729L1.9557 24.7542V19.3029V13.849H1.20775C0.59724 13.849 1.38195 13.841 1.26302 13.8063C0.353756 13.6593 0.3398 13.2639 0.255226 12.783C0.236725 12.6788 0.226154 11.5282 0.226154 10.4087C0.226154 8.49575 0.23144 8.12676 0.384729 7.83287C0.543304 7.05897 0.903584 7.11804 1.23923 7.01117C1.36345 6.9711 0.549665 6.96308 1.19454 6.96308H1.9557V5.01449C1.9557 2.67405 1.95834 2.58321 2.00856 2.3668C2.16185 1.72558 2.7235 0.643486 3.64727 0.49214C4.00142 0.355881 2.76972 0.363897 15.6989 0.36657C27.1083 0.369242 25.8244 0.371912 26.0384 0.417332ZM4.07014 2.21985C3.9327 2.28665 3.83492 2.3855 3.75563 2.53779L3.70013 2.64466V10.6385V18.635H7.18867H10.6772L10.6825 13.2568L10.6904 7.40392L10.7565 7.29705C10.8437 7.15277 10.9336 7.07262 11.0684 7.01384C11.1794 6.96575 9.93778 6.96308 17.3644 6.96308C24.7223 6.96308 25.0262 6.96575 25.1266 7.01384C25.3645 7.12338 25.5098 7.35048 25.5098 7.61765C25.5098 7.80467 25.4491 8.43163 25.3248 8.55721C25.1372 8.74957 25.3275 8.73621 22.7797 8.74423C21.519 8.7469 20.4883 8.76026 20.4883 8.77094C20.4883 8.80835 20.6355 9.23562 20.8107 9.72713C20.988 9.72713 25.885 9.74584 25.893 9.73515C25.8956 9.7298 26.0119 9.57513 26.152 9.00338L26.411 7.96141L26.4083 5.69578C26.4083 3.20305 26.4057 3.17366 26.2471 2.87176C26.0542 2.50573 25.5458 2.23856 25.1441 2.17711C24.6471 2.16642 22.1397 2.1584 15.6196 2.16108L4.18907 2.16375L4.07014 2.21985ZM1.45174 10.3986L1.45967 12.0497H1.69885C1.98957 12.0551 1.78127 12.0572 1.84205 12.0492L1.9557 12.0331V10.4087C1.9557 9.51636 1.94777 8.77629 1.9372 8.76827C1.92927 8.75759 1.95244 8.75013 1.60622 8.75013H1.44645L1.45174 10.3986ZM21.6036 12.0545L21.5983 12.5446H23.5541H25.0869V12.0492V11.5537L23.5594 11.559L21.6115 11.5671L21.6036 12.0545ZM3.0394 27.2246V27.561H15.9896H27.0426V27.2246V26.57H15.9896H3.0394V27.2246Z" fill="currentColor"/>
<path d="M7.37368 6.14442C7.53226 6.19518 7.67762 6.32342 7.7569 6.48105C7.82033 6.60395 7.82298 6.63602 7.82298 7.05815V7.507L8.00005 7.57112C9.49594 8.10013 10.1963 9.74057 9.54352 11.1913C9.31358 11.7043 8.79821 12.228 8.29606 12.4577C7.85205 12.6634 7.59569 12.7142 7.08825 12.6982C6.76581 12.6875 6.66009 12.6715 6.46452 12.6127C5.7245 12.3883 5.14306 11.886 4.82591 11.2047C4.62505 10.7745 4.58805 10.5955 4.5854 10.0852C4.5854 9.70584 4.59333 9.61233 4.64619 9.41729C4.87877 8.54898 5.52628 7.84898 6.34823 7.57647L6.52795 7.51502V7.09555C6.52795 6.77495 6.53852 6.64403 6.57288 6.54518C6.63102 6.36884 6.79488 6.21121 6.98253 6.14976C7.15432 6.09632 7.21511 6.09632 7.37368 6.14442ZM6.74467 8.83485C6.20815 9.03523 5.88572 9.50279 5.88572 10.0719C5.88572 11.2261 7.23096 11.8138 8.06348 11.0257C8.3542 10.7505 8.47049 10.478 8.46785 10.0719C8.46785 9.69248 8.38063 9.46271 8.14013 9.19554C7.93927 8.97378 7.64326 8.81081 7.36047 8.76539C7.20982 8.74401 6.89267 8.77875 6.74467 8.83485Z" fill="currentColor"/>
<path d="M9.42987 16.0861C9.59902 16.1716 9.70738 16.3079 9.76552 16.5056C9.81838 16.6926 9.79195 16.8529 9.67302 17.0426C9.4748 17.3552 9.007 17.4193 8.71893 17.1708C8.40971 16.9036 8.41235 16.4388 8.72157 16.1689C8.91979 15.9979 9.19201 15.9659 9.42987 16.0861Z" fill="currentColor"/>
<path d="M6.75259 16.0459C6.85302 16.0753 7.04596 16.2382 7.09617 16.3371C7.26532 16.6684 7.15432 17.0691 6.8451 17.2455C6.68388 17.3363 6.38259 17.339 6.21872 17.2535C5.98879 17.1279 5.84343 16.842 5.88043 16.5775C5.91215 16.3478 6.09715 16.1207 6.31387 16.0459C6.41694 16.0111 6.63631 16.0111 6.75259 16.0459Z" fill="currentColor"/>
</svg>
