<svg width="29" height="26" viewBox="0 0 29 26" fill="none" xmlns="http://www.w3.org/2000/svg">
<path d="M18.2287 3.38283C17.2338 3.38283 16.3276 2.81056 15.9 1.91224C15.4724 1.01391 14.5662 0.44165 13.5713 0.44165H4V25.4417H6.8V15.1475H12.1713C13.1662 15.1475 14.0724 15.7198 14.5 16.6181C14.9276 17.5164 15.8338 18.0887 16.8287 18.0887H25V3.38283H18.2287ZM22.2 15.1475H18.2287C17.2338 15.1475 16.3276 14.5753 15.9 13.6769C15.4724 12.7786 14.5662 12.2064 13.5713 12.2064H6.8V3.38283H12.1713C13.1662 3.38283 14.0724 3.95509 14.5 4.85342C14.9276 5.75174 15.8338 6.324 16.8287 6.324H22.2V15.1475Z" fill="currentColor"/>
</svg>
