<svg width="25" height="30" viewBox="0 0 25 30" fill="none" xmlns="http://www.w3.org/2000/svg">
    <path d="M5.55556 20.9345H15.2778V23.8345H5.55556V20.9345ZM5.55556 15.1345H19.4444V18.0345H5.55556V15.1345ZM5.55556 9.33452H19.4444V12.2345H5.55556V9.33452ZM22.2222 3.53452H16.4167C15.8333 1.85252 14.3056 0.634521 12.5 0.634521C10.6944 0.634521 9.16667 1.85252 8.58333 3.53452H2.77778C2.58333 3.53452 2.40278 3.54902 2.22222 3.59252C1.68056 3.70852 1.19444 3.99852 0.819444 4.39002C0.569444 4.65102 0.361111 4.97002 0.222222 5.31802C0.0833334 5.65152 0 6.02852 0 6.43452V26.7345C0 27.126 0.0833334 27.5175 0.222222 27.8655C0.361111 28.2135 0.569444 28.518 0.819444 28.7935C1.19444 29.185 1.68056 29.475 2.22222 29.591C2.40278 29.62 2.58333 29.6345 2.77778 29.6345H22.2222C23.75 29.6345 25 28.3295 25 26.7345V6.43452C25 4.83952 23.75 3.53452 22.2222 3.53452ZM12.5 3.17202C13.0694 3.17202 13.5417 3.66502 13.5417 4.25952C13.5417 4.85402 13.0694 5.34702 12.5 5.34702C11.9306 5.34702 11.4583 4.85402 11.4583 4.25952C11.4583 3.66502 11.9306 3.17202 12.5 3.17202ZM22.2222 26.7345H2.77778V6.43452H22.2222V26.7345Z" fill="currentColor"/>
</svg>
