<svg width="29" height="26" viewBox="0 0 29 26" fill="none" xmlns="http://www.w3.org/2000/svg">
<g clip-path="url(#clip0_8651_210)">
<path d="M12.072 6.88198C10.4218 7.40998 10.2013 7.49701 10.2013 7.58404C10.2013 7.61305 10.4552 8.3035 10.7692 9.12161C11.1033 9.98613 11.2825 10.1602 11.4039 11.0247C11.4373 11.2626 11.4707 14.3261 11.4707 18.1265C11.4707 24.1202 11.4841 24.8164 11.5776 24.8976C11.6712 24.9789 12.2725 24.9905 17.1832 24.9905C22.0939 24.9905 22.6953 24.9789 22.7888 24.8976C22.8489 24.8512 22.9024 24.8048 22.9091 24.799C22.9224 24.7932 22.9425 21.602 22.9625 17.7088L22.9884 12.2276C22.9934 11.1719 23.1953 10.1264 23.5839 9.14482C23.9046 8.32671 24.0001 7.68188 24.0001 7.68188C23.5001 7.18188 23.0001 7.18188 22.6819 7.00382C22.0806 6.81816 21.3924 6.59767 21.1385 6.51644C20.8913 6.43521 20.6775 6.36559 20.6642 6.36559C20.6508 6.36559 20.6241 6.60928 20.604 6.89939C20.5372 7.89735 20.0628 8.81989 19.3145 9.44653C18.8268 9.84688 18.4393 10.0441 17.9182 10.1602C16.1343 10.5663 14.3971 9.45233 13.876 7.58404C13.8025 7.31134 13.7424 6.9284 13.7424 6.72532C13.7424 6.52805 13.7223 6.36559 13.6956 6.37139C13.6622 6.37139 12.9339 6.60348 12.072 6.88198Z" fill="currentColor"/>
<path d="M14.0131 6.20277C13.9535 6.28072 14.0715 6.95366 14.2369 7.42772C14.5001 8.1818 15.1047 8.90327 15.5001 9.18167C16.3505 9.78301 17.0527 10.027 18.0001 9.68174C18.843 9.36993 19.5781 7.99008 19.8317 7.21613C19.9735 6.78183 20.0821 6.21529 20.0001 6.18188C19.9628 6.16518 19.7571 6.20277 19.5781 6.26402C18.1682 6.73172 16.0124 6.73729 14.4458 6.26958C14.222 6.20277 14.0355 6.17493 14.0131 6.20277Z" fill="currentColor"/>
<path d="M9.48644 8.17589C9.33277 8.34415 9.1457 8.7387 8.22368 10.8797C7.5756 12.3766 7.26158 13.1773 7.27495 13.2934C7.29499 13.4674 7.3618 13.5023 8.89849 14.1811C9.78042 14.5699 10.5421 14.889 10.5889 14.8948C10.6557 14.8948 11.5135 14.3355 11.5001 12.6819V11.763C11.5001 10.7158 11.6689 9.67539 12.0001 8.68188C11.7128 7.95081 11.5001 6.68188 10.0001 7.68188C10.0001 7.68188 9.51985 8.13527 9.48644 8.17589Z" fill="currentColor"/>
<path d="M24.0001 7.68188C22.2136 7.66467 22.7807 8.44501 22.5001 9.18188C22.1691 10.0555 22.1065 11.008 22.3203 11.9174L22.5001 12.6819C22.5001 13.9526 23.7242 14.8948 23.7643 14.8948C23.8044 14.8948 24.5527 14.5815 25.4346 14.1985C26.6172 13.6879 27.0582 13.4674 27.0982 13.3688C27.1317 13.2876 27.1116 13.1425 27.0381 12.9511C26.6706 12.0401 25.5883 9.98107 25.4346 9.71418C25.2743 9.42987 24.5001 8.18188 24.0001 7.68188Z" fill="currentColor"/>
<path d="M6.61753 0.90732C4.89691 1.46012 4.59262 1.59105 4.233 1.94019C3.93977 2.22145 3.82912 2.40571 3.51377 3.14279C3.15968 3.96715 2.66175 5.14065 2.19149 6.23656C1.89826 6.92999 1.854 7.07062 1.90379 7.1676C1.95359 7.25973 2.39619 7.4731 3.7406 8.0647L5.51102 8.84056V13.423C5.51102 17.9425 5.51102 18.0055 5.62167 18.1025C5.73232 18.1995 5.80425 18.1995 11.3147 18.1995C16.7255 18.1995 16.897 18.1946 17.0243 18.1073L17.1571 18.0152L17.1847 13.4133L17.2124 8.81632L18.9496 8.055C19.9067 7.63312 20.709 7.26458 20.7366 7.23064C20.7587 7.1967 20.7809 7.11911 20.7809 7.05607C20.7809 6.90574 18.933 2.57544 18.7449 2.29418C18.5568 2.00808 17.9798 1.41648 17.6313 1.24676C17.3381 1.11098 14.3797 0.354517 14.2414 0.354517C14.1971 0.354517 13.9924 0.427252 13.7767 0.519386C12.3659 1.12553 10.4018 1.13523 8.94674 0.543633C8.69224 0.441799 8.44328 0.354517 8.39348 0.359365C8.34369 0.359365 7.547 0.60667 6.61753 0.90732ZM8.28384 1.89616C8.66006 3.4285 8.89676 4.18378 11.521 4.18378C11.853 4.18378 12.7273 4.06555 13.0205 3.92007C14.0275 3.41576 14.2109 3.32039 14.4914 1.58306C14.5135 1.47153 14.5357 1.37939 14.5412 1.37939C14.5523 1.37939 15.1774 1.57821 15.9354 1.82067C17.3296 2.26679 17.1064 2.33703 17.1064 2.45341C17.1064 2.50675 17.008 2.79991 16.4603 3.92007C16.084 4.70079 15.9907 4.5248 15.9741 11.367L15.9354 16.5165H11.3147H6.79735V10.7431L6.76969 4.48771L6.61478 4.13857C6.53179 3.94945 6.5272 3.88774 6.25611 3.32039C5.71945 2.20508 5.72498 2.22932 6.05694 2.07415C6.30037 1.96262 8.0736 1.47913 8.13446 1.49368C8.16766 1.49853 8.23405 1.68279 8.28384 1.89616ZM10.0349 1.89616C11.3683 2.2356 12.034 2.25224 13.2677 1.82067C13.3673 1.78672 13.3728 1.80127 13.3341 1.99524C13.1958 2.74201 12.7299 3.32039 11.5866 3.32039C10.0121 3.32039 9.42081 2.45341 9.42081 1.85252C9.39315 1.73129 9.39868 1.71674 9.48721 1.74583C9.54253 1.76523 9.7915 1.83312 10.0349 1.89616ZM5.25099 4.64603L5.48336 5.13095L5.49996 6.61964C5.53896 7.22679 5.49442 7.48107 5.40037 7.44228C5.13481 7.35015 3.46293 6.90305 3.4607 6.65299C3.45847 6.40293 4.28357 3.94516 4.51041 3.50388C4.5768 3.37295 4.51041 2.97903 5.25099 4.64603ZM18.7449 4.70557C19.1045 5.54448 19.3493 6.44364 19.4434 6.6473C19.5319 6.85097 19.4942 6.76595 19.6094 7.06918C19.4942 6.76595 19.3232 6.73459 18.5597 7.06918L17.1847 7.50704V6.67298V5.22793L17.3452 4.84C17.6605 4.08353 17.9795 3.38067 18.0348 3.39522C18.0625 3.40492 18.3853 3.86667 18.7449 4.70557Z" fill="currentColor"/>
</g>
<defs>
<clipPath id="clip0_8651_210">
<rect width="29" height="25" fill="white" transform="translate(0 0.172607)"/>
</clipPath>
</defs>
</svg>
