<svg width="29" height="30" viewBox="0 0 29 30" fill="none" xmlns="http://www.w3.org/2000/svg">
<g clip-path="url(#clip0_8651_198)">
<path d="M11.501 8.96904C11.8115 8.24404 12.301 6.92454 12.301 6.06904C12.301 2.86454 9.88448 0.269043 6.90098 0.269043C3.91748 0.269043 1.50098 2.86454 1.50098 6.06904C1.50098 9.27354 3.91748 11.869 6.90098 11.869C7.69748 11.869 8.43998 11.6805 9.11498 11.347L12.301 14.769L9.11498 18.191C8.43998 17.8575 7.69748 17.669 6.90098 17.669C3.91748 17.669 1.50098 20.2645 1.50098 23.469C1.50098 26.6735 3.91748 29.269 6.90098 29.269C9.88448 29.269 12.301 26.6735 12.301 23.469C12.301 22.6135 12.3105 20.9977 12 20.2727L14.676 17.2727L24.451 27.819H27.001V26.369L11.501 8.96904ZM6.90098 8.96904C5.41598 8.96904 4.20098 7.67854 4.20098 6.06904C4.20098 4.45954 5.41598 3.16904 6.90098 3.16904C8.38598 3.16904 9.60098 4.45954 9.60098 6.06904C9.60098 7.67854 8.38598 8.96904 6.90098 8.96904ZM6.90098 26.369C5.41598 26.369 4.20098 25.0785 4.20098 23.469C4.20098 21.8595 5.41598 20.569 6.90098 20.569C8.38598 20.569 9.60098 21.8595 9.60098 23.469C9.60098 25.0785 8.38598 26.369 6.90098 26.369ZM14.676 15.9977C14.298 15.9977 14.001 15.6787 14.001 15.2727C14.001 14.8667 14.298 14.5477 14.676 14.5477C15.054 14.5477 15.351 14.8667 15.351 15.2727C15.351 15.6787 15.054 15.9977 14.676 15.9977ZM24.451 1.71904L15.5 11.7727L17.65 14.1264L27.499 3.27271V1.82271L24.451 1.71904Z" fill="#424242"/>
</g>
<defs>
<clipPath id="clip0_8651_198">
<rect width="29" height="29" fill="white" transform="translate(0 0.269043)"/>
</clipPath>
</defs>
</svg>
