<svg width="29" height="26" viewBox="0 0 29 26" fill="none" xmlns="http://www.w3.org/2000/svg">
<g clip-path="url(#clip0_8651_202)">
<path d="M21.6176 3.40356V2.15356C21.6176 1.46606 21.0353 0.903564 20.3235 0.903564H4.79412C4.08235 0.903564 3.5 1.46606 3.5 2.15356V7.15356C3.5 7.84106 4.08235 8.40356 4.79412 8.40356H20.3235C21.0353 8.40356 21.6176 7.84106 21.6176 7.15356V5.90356H22.9118V10.9036H9.97059V24.6536C9.97059 25.3411 10.5529 25.9036 11.2647 25.9036H12.2059C12.9176 25.9036 13.5 25.3411 13.5 24.6536V13.4036H25.5V3.40356H21.6176ZM19.0294 5.90356H6.08824V3.40356H19.0294V5.90356Z" fill="#424242"/>
</g>
<defs>
<clipPath id="clip0_8651_202">
<rect width="29" height="25" fill="white" transform="translate(0 0.903564)"/>
</clipPath>
</defs>
</svg>
