<svg width="29" height="30" viewBox="0 0 29 30" fill="none" xmlns="http://www.w3.org/2000/svg">
<path d="M3.77778 6.53096H6.55556V10.881H20.4444V6.53096H23.2222V13.781H26V6.53096C26 4.93596 24.75 3.63096 23.2222 3.63096H17.4167C16.8333 1.94896 15.3056 0.730957 13.5 0.730957C11.6944 0.730957 10.1667 1.94896 9.58333 3.63096H3.77778C2.25 3.63096 1 4.93596 1 6.53096V26.831C1 28.426 2.25 29.731 3.77778 29.731H12.1111V26.831H3.77778V6.53096ZM13.5 3.63096C14.2639 3.63096 14.8889 4.28346 14.8889 5.08096C14.8889 5.87846 14.2639 6.53096 13.5 6.53096C12.7361 6.53096 12.1111 5.87846 12.1111 5.08096C12.1111 4.28346 12.7361 3.63096 13.5 3.63096Z" fill="#424242"/>
<path d="M25.7826 16.5984L17.667 25.0102L13.2174 20.4219L11 22.716L17.667 29.5984L28 18.8925L25.7826 16.5984Z" fill="#424242"/>
</svg>
