<svg width="29" height="29" viewBox="0 0 29 29" fill="currentColor" xmlns="http://www.w3.org/2000/svg">
    <path d="M26.6667 0.103943C27.3042 0.227896 28.042 0.79454 28.349 1.3907C28.7739 2.23476 28.1392 4.12697 27 5.26025C26.1087 6.15154 25.4272 6.43809 23.7568 7.27034L22.7829 7.76025L20.5 9.76025C16.1026 14.2049 9.63405 20.7096 8.51847 21.7603C6.19878 23.9383 4.12493 25.4495 2.6729 26.5768C1.85835 27.2084 0.518476 28.1528 0.518476 28.0938C0.518476 28.0112 1.48059 26.6123 2.07084 25.8331C4.46728 22.6812 6.9598 19.754 15.5185 11.2603L21.1006 5.99468L21.6968 4.80237C22.0214 4.14718 22.4523 3.36215 22.653 3.05521C22.8478 2.75418 23.0072 2.49447 22.9954 2.48857C22.9836 2.47677 22.7534 2.42364 22.4818 2.37052C21.744 2.21705 20.4041 2.27018 19.6309 2.48267C18.173 2.87224 16.8331 3.68679 15.6054 4.91451C14.2773 6.25439 13.8372 7.11345 13.5185 8.76025C13.3827 9.43314 13.3886 11.1818 13.5185 11.7603L13.6129 12.1734L12.8371 12.7885C12.6659 12.9656 12.4711 13.1604 12.4003 13.2194L12.2704 13.3197L12.1229 12.8593C11.8927 12.1274 11.8336 11.6965 11.8336 10.7816C11.8336 9.47128 11.8928 8.05291 12.5185 6.76025C13.6931 4.33431 15.9654 2.099 18.3914 1.24313C19.3476 0.906687 20.0205 0.79454 21.0711 0.788637C22.2752 0.788637 23.6564 0.942102 24.6304 1.3907C24.8665 1.50284 25.6751 1.98685 25.7755 2.07539C25.8345 2.12851 25.2796 2.99619 25.0731 3.19687L24.8488 3.41527L24.5536 3.19687L24.2526 2.98438L24.0401 3.26771C23.8217 3.56874 22.7356 5.68775 22.7829 5.73497C22.8242 5.77629 24.2349 5.1093 24.7838 4.78466C25.4095 4.4187 26.1532 3.69269 26.4188 3.18507C26.6136 2.81321 27.0445 1.57958 26.9973 1.53236C26.9796 1.51465 26.773 1.56777 26.531 1.64451L26.0942 1.78617L25.7164 1.53236C25.5098 1.3907 25.1557 1.18411 24.9373 1.06606C24.5536 0.865372 24.5359 0.847664 24.6304 0.74732C24.7484 0.617464 25.4331 0.257408 25.7223 0.168871C26.0529 0.0744305 26.3834 0.0508194 26.6667 0.103943Z"/>
    <path d="M3.48181 2.26025C6.44489 2.43733 6.49775 2.78144 7.99109 4.25708C9.80317 6.05735 11.3625 8.42703 10.5185 11.2603C10.3768 11.7384 10.449 11.9363 9.66398 13.53C8.87895 15.1237 8.18375 16.0384 8.01848 17.2603C7.98306 17.5318 7.42445 18.2958 6.95815 18.7798C6.68073 19.069 6.43282 19.3169 6.40331 19.3287C6.33248 19.3642 6.35609 18.2899 6.45053 17.6111C6.6158 16.3716 6.92273 15.4744 7.70777 13.9692C8.53413 12.3814 8.82335 11.2423 8.76433 9.75481C8.72891 8.82221 8.60496 8.25557 8.28622 7.55907C7.60153 6.08343 6.32658 5.03278 4.49679 4.43662C3.64682 4.1533 2.77915 3.99983 1.59864 3.9231L0.577503 3.85227L1.5 2.76025C2 2.26025 2.5 2.26025 3.48181 2.26025Z"/>
    <path d="M27.9712 5.5198C28.0243 5.84444 27.9181 6.61177 27.7587 7.13119C27.5344 7.8572 26.8448 9.36897 26.2723 9.98283L26.0185 10.2603L25.7765 10.0301C25.4577 9.72903 24.6668 9.2332 24.6668 9.20369C24.6668 9.19188 24.8085 9.01481 24.9796 8.81412C25.5522 8.14123 26.1129 7.41748 26.2723 6.65015C26.3313 6.38454 26.9205 6.02742 27.1035 5.90346C27.2216 5.82083 27.4577 5.64375 27.6289 5.50799L27.9358 5.26009L27.9712 5.5198Z"/>
    <path d="M23.5935 14.9825C25.6653 15.2245 27.2866 16.2787 28.0185 17.7603C28.5851 18.9053 28.526 20.5093 28.0007 21.7489C27.6997 22.469 27.2983 23.0356 26.6136 23.7085C25.6515 24.6706 24.471 25.3907 22.9717 25.9397C20.168 26.9726 16.0953 27.2559 13.2798 26.6244C11.1194 26.1404 9.1598 25.0071 8.06193 23.6082L7.79041 23.2599L8.20359 22.8881C8.61087 22.5162 9.42995 21.6363 9.51848 21.7603C9.91395 22.321 10.3161 23.2481 11.0185 23.7085C11.6678 24.1276 12.2275 24.4828 13.0185 24.7603C15.0135 25.4449 16.6558 25.6616 19.5185 25.2603C23.3669 24.7113 25.6626 23.015 26.5185 20.7603C26.7487 20.1405 26.7959 19.2433 26.6188 18.6589C26.2647 17.508 24.9467 17.0071 24.0185 16.7603C23.4636 16.6127 23.3947 16.595 22.1729 16.595C21.0101 16.595 20.7858 16.6127 20.0185 16.7603C18.1592 17.1085 16.3974 17.1321 15.1224 16.595L14.8306 16.4954L15.4873 15.8522C15.8002 15.5335 16.0264 15.0415 16.115 15.0651C17.1833 15.3839 18.4347 15.4252 19.8926 15.1891C21.6102 14.9117 22.5133 14.8586 23.5935 14.9825Z"/>
</svg>
