<svg width="24" height="24" viewBox="0 0 24 24" fill="none" xmlns="http://www.w3.org/2000/svg">
<path fill-rule="evenodd" clip-rule="evenodd" d="M5.1352 0H18.4867C21.3228 0 23.6219 2.23858 23.6219 5V19C23.6219 21.7614 21.3228 24 18.4867 24H5.1352C2.29911 24 0 21.7614 0 19V5C0 2.23858 2.29911 0 5.1352 0ZM5.1352 2C3.43354 2 2.05408 3.34315 2.05408 5V19C2.05408 20.6569 3.43354 22 5.1352 22H18.4867C20.1884 22 21.5678 20.6569 21.5678 19V5C21.5678 3.34315 20.1884 2 18.4867 2H5.1352Z" fill="#505050"/>
<path d="M7.51611 2H9.66356V22H7.51611V2Z" fill="#505050"/>
<rect x="18.2788" y="12.4502" width="5.8284" height="1.71734" transform="rotate(135 18.2788 12.4502)" fill="#505050"/>
<rect x="17.0717" y="13.6572" width="6.29289" height="1.70711" transform="rotate(-135 17.0717 13.6572)" fill="#505050"/>
</svg>
