<svg xmlns="http://www.w3.org/2000/svg"  width="100%" height="100%" viewBox="0 0 350 72" xml:space="preserve" style="fill-rule:evenodd;clip-rule:evenodd;stroke-linejoin:round;stroke-miterlimit:2;">
  <g transform="matrix(0.632099,0,0,0.632099,-0.19279,-0.111246)">
    <path d="M56.895,0.184C71.902,0.184 86.219,6.02 96.891,16.574C107.516,27.086 113.488,41.258 113.488,56.223C113.488,71.184 107.516,85.355 96.891,95.867C86.219,106.422 71.898,112.258 56.895,112.258C41.895,112.258 27.574,106.422 16.902,95.867C6.277,85.359 0.305,71.184 0.305,56.223C0.305,41.258 6.277,27.086 16.902,16.574C27.574,6.02 41.895,0.184 56.895,0.184Z" style="fill:rgb(250,206,131);" />
    <path d="M49.629,34.637C49.629,37.617 48.422,46.07 45.148,46.012C41.789,45.957 40.664,37.832 40.664,34.637C40.664,31.441 41.797,23.316 45.148,23.258C48.43,23.203 49.629,31.656 49.629,34.637Z" />
    <path d="M73.129,34.637C73.129,37.617 71.922,46.07 68.645,46.012C65.289,45.957 64.164,37.832 64.164,34.637C64.164,31.441 65.297,23.316 68.645,23.258C71.926,23.203 73.129,31.656 73.129,34.637Z" />
    <path d="M56.266,92.09C36.844,92.148 19.871,72.973 19.879,54.375C19.879,53.699 20.426,53.148 21.102,53.148C21.781,53.148 22.328,53.699 22.328,54.375C22.328,72.699 37.879,88.402 56.266,88.402C74.637,88.402 90.203,72.711 90.199,54.375C90.199,53.699 90.75,53.148 91.426,53.148C92.102,53.148 92.652,53.699 92.652,54.375C92.652,72.969 75.684,92.148 56.266,92.09Z" />
    <path d="M516.98,19.742L506.055,19.742L467.84,59.199L459.785,94.5L470.473,94.5L466.223,113.129L417.5,113.129L421.75,94.5L432.406,94.5L440.422,59.359L420.305,19.742L409.453,19.742L413.719,1.047L462.508,1.047L458.242,19.742L450.961,19.742L459.402,36.324L475.508,19.742L468.191,19.742L472.457,1.047L521.246,1.047L516.98,19.742Z" style="fill:rgb(0,0,0);" />
    <path d="M398.555,18.961L388.633,18.961L367.312,112.414L342.043,112.414L319.535,47.855L309.059,93.789L318.984,93.789L314.734,112.414L269.707,112.414L273.957,93.789L283.785,93.789L300.855,18.961L291.027,18.961L295.277,0.332L330.41,0.332L352.867,64.961L363.363,18.961L353.527,18.961L357.777,0.332L402.805,0.332L398.555,18.961Z" style="fill:rgb(0,0,0);" />
    <path d="M256.312,97.352L228.52,112.258L145.387,112.258L149.637,93.629L161.496,93.629L178.57,18.801L166.707,18.801L170.957,0.176L254.09,0.176L275.082,15.074L256.312,97.352ZM226.672,93.629L243.742,18.801L209.051,18.801L191.98,93.629L226.672,93.629Z" style="fill:rgb(0,0,0);" />
    <path d="M536.82,21.207L536.82,26.043L538.812,26.043C539.996,26.043 540.855,25.859 541.406,25.48C541.961,25.102 542.234,24.508 542.234,23.695C542.234,22.848 541.938,22.223 541.348,21.816C540.762,21.406 539.844,21.207 538.613,21.207L536.82,21.207ZM532.77,18.645L539.293,18.645C541.664,18.645 543.441,19.043 544.625,19.852C545.816,20.648 546.41,21.844 546.41,23.434C546.41,24.535 546.086,25.48 545.438,26.266C544.797,27.043 543.902,27.574 542.758,27.855L546.492,35.305L541.973,35.305L538.812,28.484L536.82,28.484L536.82,35.305L532.77,35.305L532.77,18.645ZM539.012,14.762C537.301,14.762 535.719,15.055 534.25,15.656C532.781,16.254 531.469,17.137 530.297,18.301C529.078,19.52 528.133,20.906 527.473,22.457C526.816,24.004 526.488,25.602 526.488,27.25C526.488,28.918 526.797,30.496 527.418,31.988C528.031,33.484 528.926,34.82 530.098,35.984C531.297,37.207 532.66,38.141 534.188,38.789C535.727,39.445 537.316,39.77 538.969,39.77C540.582,39.77 542.152,39.449 543.684,38.824C545.203,38.191 546.598,37.289 547.844,36.109C549.016,34.98 549.922,33.664 550.562,32.16C551.211,30.66 551.535,29.102 551.535,27.496C551.535,25.715 551.238,24.066 550.641,22.566C550.039,21.062 549.152,19.715 547.969,18.52C546.754,17.273 545.398,16.336 543.883,15.703C542.367,15.078 540.746,14.762 539.012,14.762ZM538.969,12.238C541.043,12.238 543,12.625 544.84,13.395C546.672,14.176 548.312,15.289 549.75,16.758C551.145,18.156 552.195,19.762 552.926,21.559C553.652,23.363 554.016,25.273 554.016,27.293C554.016,29.336 553.637,31.273 552.887,33.098C552.129,34.918 551.031,36.523 549.594,37.906C548.152,39.32 546.512,40.41 544.676,41.16C542.84,41.91 540.934,42.289 538.969,42.289C536.965,42.289 535.051,41.898 533.219,41.117C531.383,40.34 529.75,39.215 528.305,37.75C526.906,36.336 525.84,34.73 525.109,32.934C524.371,31.137 524.008,29.262 524.008,27.293C524.008,25.922 524.184,24.586 524.551,23.289C524.914,21.988 525.461,20.719 526.191,19.484C527.547,17.199 529.344,15.414 531.578,14.148C533.816,12.871 536.277,12.238 538.969,12.238Z" style="fill:rgb(0,0,0);" />
  </g>
</svg>

