<svg xmlns="http://www.w3.org/2000/svg"  width="100%" height="100%" viewBox="0 0 114 114">
  <g>
    <path d="M56.895,0.184C71.902,0.184 86.219,6.02 96.891,16.574C107.516,27.086 113.488,41.258 113.488,56.223C113.488,71.184 107.516,85.355 96.891,95.867C86.219,106.422 71.898,112.258 56.895,112.258C41.895,112.258 27.574,106.422 16.902,95.867C6.277,85.359 0.305,71.184 0.305,56.223C0.305,41.258 6.277,27.086 16.902,16.574C27.574,6.02 41.895,0.184 56.895,0.184Z" style="fill:rgb(250,206,131);" />
    <path d="M49.629,34.637C49.629,37.617 48.422,46.07 45.148,46.012C41.789,45.957 40.664,37.832 40.664,34.637C40.664,31.441 41.797,23.316 45.148,23.258C48.43,23.203 49.629,31.656 49.629,34.637Z" />
    <path d="M73.129,34.637C73.129,37.617 71.922,46.07 68.645,46.012C65.289,45.957 64.164,37.832 64.164,34.637C64.164,31.441 65.297,23.316 68.645,23.258C71.926,23.203 73.129,31.656 73.129,34.637Z" />
    <path d="M56.266,92.09C36.844,92.148 19.871,72.973 19.879,54.375C19.879,53.699 20.426,53.148 21.102,53.148C21.781,53.148 22.328,53.699 22.328,54.375C22.328,72.699 37.879,88.402 56.266,88.402C74.637,88.402 90.203,72.711 90.199,54.375C90.199,53.699 90.75,53.148 91.426,53.148C92.102,53.148 92.652,53.699 92.652,54.375C92.652,72.969 75.684,92.148 56.266,92.09Z" />
  </g>
</svg>